<?xml version="1.0" standalone="no"?>
<!DOCTYPE svg PUBLIC "-//W3C//DTD SVG 20010904//EN"
 "http://www.w3.org/TR/2001/REC-SVG-20010904/DTD/svg10.dtd">
<svg version="1.0" xmlns="http://www.w3.org/2000/svg"
 width="640.000000pt" height="640.000000pt" viewBox="0 0 640.000000 640.000000"
 preserveAspectRatio="xMidYMid meet">

<g transform="translate(0.000000,640.000000) scale(0.100000,-0.100000)"
fill="#000000" stroke="none">
<path d="M5414 6372 c-47 -46 -384 -325 -525 -434 -41 -31 -83 -65 -94 -75
-61 -55 -144 -122 -175 -141 -19 -11 -47 -33 -62 -47 -15 -14 -33 -25 -40 -25
-8 0 -9 -3 -1 -11 16 -16 555 -8 561 9 2 6 12 12 23 12 10 0 19 6 19 13 0 6
24 28 52 47 29 19 60 43 70 53 10 9 23 17 30 17 6 0 19 7 28 15 39 35 227 27
379 -17 35 -10 45 -10 48 0 3 6 14 12 26 12 41 1 86 52 118 136 29 75 31 87
32 234 1 107 -2 167 -11 193 l-14 37 -218 0 -218 0 -28 -28z"/>
<path d="M4930 5493 c-14 -10 -136 -105 -271 -213 -135 -107 -317 -252 -405
-321 -319 -252 -751 -594 -841 -666 l-93 -74 0 -391 c0 -311 3 -389 13 -381
68 51 175 140 189 155 16 18 18 47 17 275 0 152 3 258 9 262 5 3 61 45 123 93
63 48 205 156 316 240 371 282 464 352 611 465 81 62 153 112 160 113 9 0 12
-26 12 -100 l0 -100 43 0 c23 0 67 -7 97 -15 30 -8 58 -15 63 -15 12 0 4 683
-8 687 -6 2 -22 -5 -35 -14z"/>
<path d="M4805 4770 c55 -4 109 -10 120 -14 l20 -8 -20 13 c-12 8 -59 14 -120
15 l-100 2 100 -8z"/>
<path d="M4678 4763 c7 -3 16 -2 19 1 4 3 -2 6 -13 5 -11 0 -14 -3 -6 -6z"/>
<path d="M4578 4730 c-20 -11 -39 -24 -43 -29 -3 -6 15 2 40 15 25 14 45 28
45 30 0 6 -1 5 -42 -16z"/>
<path d="M4985 4732 c6 -5 28 -19 50 -32 32 -19 36 -19 20 -4 -11 11 -33 25
-50 32 -16 8 -25 9 -20 4z"/>
<path d="M4795 4700 c11 -5 27 -9 35 -9 9 0 8 4 -5 9 -11 5 -27 9 -35 9 -9 0
-8 -4 5 -9z"/>
<path d="M4714 4681 c-33 -20 -64 -82 -64 -128 0 -14 9 -40 20 -58 46 -74 161
-87 225 -25 18 17 35 44 38 59 8 40 -12 107 -41 133 l-26 23 25 -35 c17 -25
24 -48 24 -83 0 -43 -4 -52 -37 -83 -32 -29 -45 -34 -88 -34 -41 0 -54 5 -79
29 -67 66 -50 170 34 207 17 7 23 13 15 14 -8 0 -29 -9 -46 -19z"/>
<path d="M4475 4653 c-44 -45 -97 -124 -114 -173 -20 -54 -29 -169 -19 -235 9
-60 44 -153 53 -143 3 3 -5 27 -17 54 -19 41 -23 67 -23 154 0 94 3 112 29
175 31 74 60 120 109 173 43 45 28 40 -18 -5z"/>
<path d="M5080 4678 c0 -3 15 -22 34 -42 72 -79 119 -206 120 -327 1 -48 4
-82 8 -75 4 6 8 47 8 91 0 125 -51 246 -139 329 -17 17 -31 27 -31 24z"/>
<path d="M5218 4177 c-3 -19 -2 -25 4 -19 6 6 8 18 6 28 -3 14 -5 12 -10 -9z"/>
<path d="M5187 4105 c-9 -19 -15 -35 -12 -35 7 0 37 61 33 66 -3 2 -12 -12
-21 -31z"/>
<path d="M4410 4071 c5 -11 15 -23 21 -27 6 -3 3 5 -6 20 -20 30 -30 35 -15 7z"/>
<path d="M5135 4030 c-16 -16 -26 -32 -24 -34 3 -3 17 10 32 29 34 43 30 45
-8 5z"/>
<path d="M4460 4006 c0 -2 8 -10 18 -17 15 -13 16 -12 3 4 -13 16 -21 21 -21
13z"/>
<path d="M5041 3949 c-30 -21 -51 -39 -47 -39 10 0 93 58 101 70 9 14 6 13
-54 -31z"/>
<path d="M4500 3973 c1 -4 20 -21 43 -37 23 -16 36 -22 28 -12 -19 23 -71 59
-71 49z"/>
<path d="M3913 3958 c-12 -17 -16 -88 -8 -138 l7 -40 89 0 90 0 -3 93 -3 92
-81 3 c-57 2 -84 -1 -91 -10z"/>
<path d="M4213 3963 c-9 -3 -13 -32 -13 -94 l0 -90 93 3 92 3 3 84 c2 61 -1
87 -10 92 -14 9 -145 11 -165 2z"/>
<path d="M4971 3894 c0 -11 3 -14 6 -6 3 7 2 16 -1 19 -3 4 -6 -2 -5 -13z"/>
<path d="M4581 3874 c0 -11 3 -14 6 -6 3 7 2 16 -1 19 -3 4 -6 -2 -5 -13z"/>
<path d="M4968 3618 c-2 -139 -3 -379 -3 -534 l0 -281 -34 -29 c-18 -16 -52
-41 -74 -56 -22 -16 -35 -28 -29 -28 6 0 42 25 81 56 l71 57 0 533 c0 294 -2
534 -5 534 -3 0 -6 -114 -7 -252z"/>
<path d="M4597 3839 c4 -4 19 -9 33 -11 l25 -3 3 -146 c2 -122 5 -149 19 -160
15 -13 15 -12 5 8 -8 13 -12 73 -12 155 0 73 -4 138 -8 144 -4 6 -22 13 -40
16 -18 3 -29 1 -25 -3z"/>
<path d="M3978 3692 c-67 -3 -67 -3 -73 -35 -4 -18 -5 -57 -3 -87 l3 -55 93
-3 92 -3 0 89 c0 103 5 99 -112 94z"/>
<path d="M4223 3694 c-22 -5 -23 -10 -23 -95 l0 -90 93 3 92 3 3 79 c2 44 -1
83 -6 88 -10 10 -127 19 -159 12z"/>
<path d="M3363 3352 c-320 -257 -808 -650 -1006 -810 l-198 -160 -97 -20 c-53
-12 -158 -35 -232 -52 -74 -18 -231 -53 -348 -80 -118 -27 -216 -51 -220 -54
-3 -3 222 -6 499 -6 l504 0 630 505 c347 277 635 504 640 505 6 0 49 -33 96
-73 110 -91 625 -518 914 -756 l219 -181 108 0 108 0 0 265 c0 185 -3 265 -11
265 -6 0 -29 -16 -52 -35 -45 -39 -99 -54 -122 -35 -9 7 -17 11 -20 9 -2 -3
-5 -37 -6 -77 -1 -45 -6 -72 -13 -72 -6 0 -90 66 -186 146 -149 123 -229 190
-345 286 -257 212 -658 542 -676 555 -13 11 -43 -9 -186 -125z"/>
<path d="M4697 3453 c-6 -32 -2 -42 20 -65 15 -15 28 -26 31 -24 2 3 -7 17
-21 32 -20 21 -24 34 -20 60 3 19 3 34 1 34 -3 0 -8 -17 -11 -37z"/>
<path d="M4705 3293 c-61 -69 -61 -67 -10 -121 52 -57 56 -84 19 -123 -22 -23
-24 -30 -14 -48 13 -26 7 -52 -20 -76 -26 -24 -26 -76 0 -100 11 -10 20 -13
20 -8 0 6 -7 16 -15 23 -22 18 -18 47 11 86 21 27 25 41 20 66 -5 24 -1 37 14
53 11 12 22 37 25 54 3 29 -2 39 -42 77 -51 48 -51 42 9 109 16 16 28 36 28
43 0 16 1 17 -45 -35z"/>
<path d="M4710 2802 c0 -4 23 -30 52 -57 l51 -50 -47 58 c-49 57 -56 64 -56
49z"/>
<path d="M3302 2778 c-12 -12 -17 -133 -6 -162 5 -13 23 -16 95 -16 l90 0 -3
93 -3 92 -80 3 c-54 2 -84 -1 -93 -10z"/>
<path d="M3597 2783 c-4 -3 -7 -46 -7 -95 l0 -89 93 3 92 3 3 78 c2 50 -1 84
-9 93 -12 15 -159 21 -172 7z"/>
<path d="M3302 2508 c-12 -12 -16 -115 -6 -155 6 -22 11 -23 96 -23 l89 0 -3
93 -3 92 -80 3 c-54 2 -84 -1 -93 -10z"/>
<path d="M3594 2507 c-3 -8 -4 -49 -2 -93 l3 -79 90 0 90 0 3 78 c2 50 -1 84
-9 93 -16 19 -167 20 -175 1z"/>
<path d="M5315 2233 c-4 -59 -5 -170 -1 -246 l7 -138 32 -28 c145 -128 255
-175 345 -150 143 39 208 150 200 339 -5 113 -25 164 -89 228 -52 51 -80 58
-224 54 -118 -2 -214 10 -227 31 -4 6 -8 8 -8 3 0 -5 -6 -3 -14 3 -12 10 -15
-5 -21 -96z"/>
<path d="M1898 1969 c-2 -61 0 -116 3 -121 12 -19 29 3 29 38 0 34 0 34 46 34
56 0 82 13 95 47 26 69 -20 113 -115 113 l-55 0 -3 -111z m136 65 c38 -38 9
-85 -54 -87 l-45 -2 -3 53 -3 52 45 0 c27 0 51 -6 60 -16z"/>
<path d="M2127 2073 c-4 -3 -7 -58 -7 -120 0 -87 3 -114 13 -111 6 3 13 21 15
41 3 35 5 37 37 37 29 0 39 -6 61 -40 15 -22 33 -40 41 -40 15 0 9 16 -20 55
-14 18 -13 22 9 48 38 45 31 98 -17 122 -28 15 -120 21 -132 8z m124 -33 c23
-13 26 -62 4 -80 -8 -7 -35 -15 -60 -18 l-45 -5 0 57 0 56 41 0 c22 0 49 -5
60 -10z"/>
<path d="M2404 2064 c-85 -42 -84 -168 2 -209 40 -19 65 -19 107 -1 61 25 86
89 58 151 -29 66 -101 92 -167 59z m120 -39 c56 -52 20 -155 -54 -155 -62 0
-99 34 -100 92 0 75 97 116 154 63z"/>
<path d="M2630 1961 c0 -101 2 -121 15 -121 11 0 15 11 15 40 l0 40 50 0 c41
0 56 5 75 25 30 29 33 73 6 106 -16 19 -30 24 -90 27 l-71 4 0 -121z m134 73
c20 -20 20 -58 0 -74 -8 -8 -34 -14 -57 -14 l-42 -1 -3 53 -3 52 45 0 c27 0
51 -6 60 -16z"/>
<path d="M2850 1960 c0 -93 3 -121 13 -117 9 3 12 35 12 117 0 82 -3 114 -12
118 -10 3 -13 -25 -13 -118z"/>
<path d="M2950 1960 l0 -120 80 0 c64 0 80 3 80 15 0 12 -14 15 -65 15 l-65 0
0 40 0 40 54 0 c75 0 82 18 9 22 l-58 3 -3 37 -3 37 63 3 c89 4 79 22 -14 26
l-78 3 0 -121z"/>
<path d="M3164 2067 c-2 -7 -3 -60 -2 -118 l3 -104 63 -3 c49 -2 70 1 96 17
79 49 73 166 -10 206 -40 19 -143 20 -150 2z m158 -44 c38 -36 39 -90 1 -127
-23 -23 -34 -27 -77 -24 l-51 3 -3 74 c-2 41 -1 80 2 88 4 8 22 13 53 13 37 0
53 -5 75 -27z"/>
<path d="M3465 2018 c-15 -35 -39 -86 -51 -115 -28 -60 -28 -63 -10 -63 7 0
19 14 26 30 12 29 15 30 74 30 57 0 62 -2 78 -30 16 -29 38 -40 38 -21 0 24
-99 226 -112 229 -10 2 -25 -19 -43 -60z m66 -34 c11 -26 18 -49 15 -51 -2 -2
-22 -3 -44 -1 l-41 3 21 48 c11 26 22 47 25 47 2 0 13 -21 24 -46z"/>
<path d="M3660 1959 l0 -121 70 4 c83 4 118 26 139 85 13 36 12 43 -5 79 -25
50 -71 74 -146 74 l-58 0 0 -121z m141 81 c29 -16 51 -67 44 -101 -10 -44 -49
-69 -106 -69 l-49 0 0 90 0 90 46 0 c25 0 54 -5 65 -10z"/>
<path d="M3924 2067 c-2 -7 -3 -60 -2 -118 l3 -104 83 -3 c67 -2 82 0 82 12 0
12 -16 16 -67 18 l-68 3 0 35 0 35 58 3 c73 4 75 22 2 22 -30 0 -55 3 -56 8
-9 66 -8 67 59 70 46 2 62 7 62 17 0 20 -148 22 -156 2z"/>
<path d="M4180 2073 c-29 -11 -50 -36 -50 -59 0 -25 43 -64 70 -64 10 0 28 -8
41 -18 47 -39 -14 -79 -76 -49 -51 24 -66 -2 -15 -28 64 -33 140 -3 140 55 0
33 -21 50 -82 69 -20 7 -39 19 -42 28 -14 35 40 56 84 33 21 -11 39 5 24 20
-12 12 -76 20 -94 13z"/>
<path d="M2405 1661 c-38 -6 -39 -7 -17 -19 21 -12 22 -18 22 -138 0 -117 -1
-126 -20 -131 -44 -12 -16 -23 55 -23 43 0 75 4 75 10 0 6 -6 10 -14 10 -18 0
-26 22 -26 76 0 64 20 57 77 -26 l48 -69 49 -1 50 0 -30 33 c-65 71 -98 121
-84 125 26 9 60 51 60 75 0 70 -97 101 -245 78z m150 -37 c25 -26 16 -85 -16
-103 -43 -24 -59 -10 -59 52 0 30 3 57 7 60 12 13 51 7 68 -9z"/>
<path d="M2940 1663 c0 -2 9 -12 20 -23 18 -18 20 -33 20 -132 0 -101 -2 -114
-22 -135 l-21 -23 136 0 137 0 0 45 c0 25 -4 45 -10 45 -5 0 -10 -6 -10 -13 0
-39 -98 -65 -128 -35 -13 13 -17 104 -4 111 14 9 50 -12 57 -32 11 -36 25 -12
25 44 0 61 -11 76 -30 41 -12 -24 -43 -39 -54 -28 -3 3 -6 29 -6 59 l0 53 44
0 c43 0 68 -13 79 -42 9 -22 24 9 19 40 l-4 27 -124 0 c-68 0 -124 -1 -124 -2z"/>
<path d="M4020 1658 c0 -5 7 -11 15 -14 12 -5 15 -30 15 -135 0 -106 -3 -131
-15 -135 -43 -17 -3 -24 118 -22 l132 3 3 43 c4 49 -7 54 -31 12 -16 -27 -23
-30 -68 -30 -56 0 -67 14 -65 84 1 51 19 56 56 16 l30 -32 0 68 -1 69 -22 -26
c-47 -55 -71 -40 -65 41 3 34 5 35 50 38 41 3 49 0 64 -22 23 -36 36 -32 32
10 l-3 37 -122 1 c-68 1 -123 -2 -123 -6z"/>
<path d="M2735 1648 c32 -18 35 -28 35 -143 0 -116 -3 -126 -35 -141 -15 -6 1
-10 59 -12 43 -2 81 -1 83 2 3 2 -5 14 -16 25 -19 19 -21 33 -21 125 0 113 4
136 26 136 8 0 14 5 14 10 0 6 -34 10 -82 10 -67 -1 -79 -3 -63 -12z"/>
<path d="M3270 1652 c0 -4 9 -13 20 -20 18 -11 20 -23 20 -123 0 -106 -1 -111
-26 -134 l-27 -25 57 0 c31 0 56 2 56 5 0 3 -9 14 -20 25 -17 17 -20 33 -20
104 0 47 3 87 8 89 4 3 52 -48 107 -112 56 -64 105 -115 110 -114 6 2 11 62
13 138 2 122 4 136 22 147 32 20 23 28 -30 28 -55 0 -60 -4 -30 -28 19 -15 21
-26 18 -97 l-3 -80 -90 102 -90 102 -47 1 c-27 0 -48 -3 -48 -8z"/>
<path d="M3660 1620 c0 -22 5 -40 10 -40 6 0 10 6 10 13 0 22 34 47 63 47 l27
0 0 -131 c0 -122 -1 -131 -20 -136 -46 -12 -15 -23 65 -23 47 0 85 2 85 5 0 3
-11 10 -25 15 -25 9 -25 10 -25 140 l0 130 24 0 c37 0 57 -11 67 -36 11 -31
29 -31 29 0 0 56 0 56 -161 56 l-149 0 0 -40z"/>
<path d="M1190 1204 c0 -4 8 -13 18 -20 13 -10 18 -31 21 -104 4 -114 -4 -157
-29 -165 -40 -13 -7 -25 66 -25 74 0 92 10 54 30 -18 10 -20 21 -20 130 0 109
2 121 20 132 35 22 22 28 -55 28 -41 0 -75 -3 -75 -6z"/>
<path d="M1400 1202 c0 -4 9 -13 20 -20 18 -11 20 -23 20 -132 0 -109 -2 -120
-20 -130 -34 -18 -22 -30 30 -30 51 0 61 8 35 30 -11 9 -15 35 -15 107 0 53 4
93 9 91 5 -1 53 -54 106 -115 53 -62 101 -113 106 -113 5 0 9 56 9 130 0 125
1 132 24 155 13 13 21 26 18 29 -7 8 -102 8 -102 0 0 -3 9 -13 20 -22 19 -15
21 -26 18 -97 l-3 -80 -89 103 -89 102 -49 0 c-26 0 -48 -3 -48 -8z"/>
<path d="M1806 1201 c-3 -5 3 -11 14 -14 19 -5 20 -14 20 -126 0 -108 -2 -123
-19 -138 -27 -23 -17 -33 33 -33 52 0 63 9 36 30 -19 14 -21 24 -18 105 l3 90
39 -100 c43 -109 55 -130 67 -118 4 4 24 49 44 98 20 50 41 94 46 99 5 6 9
-24 9 -77 0 -76 -2 -88 -20 -97 -35 -19 -12 -30 61 -30 69 0 86 10 49 30 -18
10 -20 21 -20 125 0 121 4 145 26 145 8 0 14 5 14 10 0 6 -24 10 -54 10 l-54
0 -39 -97 c-22 -54 -43 -97 -49 -96 -5 0 -26 44 -48 97 l-38 96 -49 0 c-26 0
-50 -4 -53 -9z"/>
<path d="M2345 1196 c-90 -39 -123 -165 -64 -240 47 -59 147 -83 220 -52 126
53 137 229 18 288 -41 20 -132 23 -174 4z m127 -17 c66 -35 63 -225 -5 -257
-33 -16 -78 -8 -101 17 -39 43 -39 188 -1 231 20 22 74 27 107 9z"/>
<path d="M2660 1201 c0 -5 9 -11 20 -14 19 -5 20 -14 20 -131 0 -115 -2 -126
-20 -136 -39 -21 -20 -30 63 -30 138 0 197 28 197 93 0 42 -8 53 -49 70 l-34
15 24 12 c31 17 39 29 39 63 0 48 -47 67 -162 67 -54 0 -98 -4 -98 -9z m184
-43 c15 -42 -6 -78 -44 -78 -29 0 -30 1 -30 48 0 56 5 64 39 60 17 -2 29 -12
35 -30z m-22 -107 c40 -5 53 -100 16 -125 -28 -20 -33 -20 -52 0 -11 10 -16
34 -16 68 0 58 3 66 28 61 9 -2 20 -4 24 -4z"/>
<path d="M3010 1200 c0 -5 6 -10 14 -10 22 0 26 -24 26 -145 0 -104 -2 -115
-20 -125 -38 -20 -20 -30 54 -30 72 0 111 15 67 27 -20 5 -21 12 -21 135 0
121 1 130 20 135 45 12 15 23 -60 23 -47 0 -80 -4 -80 -10z"/>
<path d="M3220 1201 c0 -5 9 -11 20 -14 19 -5 20 -14 20 -131 0 -115 -2 -126
-20 -136 -45 -24 -18 -31 118 -28 l137 3 3 43 c2 25 -1 42 -7 42 -6 0 -11 -4
-11 -10 0 -26 -41 -50 -85 -50 -59 0 -65 14 -65 139 0 88 3 104 20 121 11 11
20 22 20 25 0 3 -34 5 -75 5 -41 0 -75 -4 -75 -9z"/>
<path d="M3550 1201 c0 -5 9 -11 20 -14 19 -5 20 -14 20 -131 0 -115 -2 -126
-20 -136 -38 -20 -20 -30 54 -30 72 0 111 15 67 27 -20 5 -21 12 -21 135 0
121 1 130 20 135 45 12 15 23 -60 23 -44 0 -80 -4 -80 -9z"/>
<path d="M3845 1069 c-33 -78 -68 -145 -78 -150 -28 -15 -10 -29 37 -29 53 0
61 7 33 30 -19 15 -20 21 -9 44 10 23 17 26 66 26 53 0 55 -1 61 -31 6 -24 3
-34 -9 -41 -33 -19 -14 -28 59 -28 77 0 90 7 55 31 -10 8 -44 74 -74 149 -30
74 -60 136 -68 138 -8 1 -35 -49 -73 -139z m79 -26 c7 -21 4 -23 -33 -23 -23
0 -41 2 -41 5 0 3 10 24 21 47 l21 42 13 -25 c7 -13 16 -34 19 -46z"/>
<path d="M4110 1202 c0 -4 10 -12 23 -17 21 -9 22 -16 24 -124 1 -127 -1 -138
-28 -146 -41 -13 -15 -25 54 -25 81 0 97 6 67 27 -16 11 -20 26 -20 69 0 30 5
54 10 54 6 0 25 -21 43 -47 65 -93 76 -103 118 -103 28 0 39 4 39 15 0 8 -4
15 -9 15 -6 0 -31 28 -57 61 l-47 61 32 25 c42 33 44 91 5 122 -23 18 -41 21
-140 21 -63 0 -114 -3 -114 -8z m190 -32 c40 -40 14 -110 -41 -110 -29 0 -29
0 -29 58 0 32 3 62 7 65 13 13 43 7 63 -13z"/>
<path d="M4470 1201 c0 -5 9 -11 20 -14 19 -5 20 -14 20 -131 0 -115 -2 -126
-20 -136 -38 -20 -20 -30 53 -30 81 0 97 6 67 27 -18 13 -20 26 -20 140 0 116
1 125 20 130 45 12 15 23 -60 23 -44 0 -80 -4 -80 -9z"/>
<path d="M4817 1183 c-8 -15 -36 -79 -62 -141 -27 -65 -55 -117 -66 -123 -29
-15 -13 -29 35 -29 53 0 63 9 34 31 -19 15 -21 20 -10 43 10 23 17 26 66 26
53 0 55 -1 61 -31 6 -24 3 -34 -9 -41 -33 -19 -14 -28 59 -28 77 0 90 7 55 31
-12 8 -42 69 -73 148 -29 74 -58 136 -64 138 -7 3 -18 -8 -26 -24z m23 -121
c16 -40 12 -44 -34 -40 l-35 3 20 44 c21 47 28 46 49 -7z"/>
</g>
</svg>
